<?xml version='1.0' encoding='utf-8'?>
<svg xmlns="http://www.w3.org/2000/svg" width="2000px" height="2500px" viewBox="0 0 2000 2500" version="1.1" id="SVGRoot"> <defs id="defs3848"/> <metadata id="metadata3851"> </metadata> <g id="layer1" style="display:inline"> <rect style="opacity:1;fill:#dbe3de;fill-opacity:1;stroke:none;stroke-width:7;stroke-linecap:round;stroke-linejoin:round;stroke-miterlimit:4;stroke-dasharray:none;stroke-opacity:1" id="rect4404" width="2000" height="2500" x="0" y="0" ry="3.09359"/> </g> <g id="layer3" style="display:inline"> <path id="path4821" d="m 838.91538,1521.9119 -324.6977,155.5881 -25.7483,-29.4994 10.867,-8.7854 305.7723,-146.5194 29.7426,-39.0536 18.363,22.4292 z" style="opacity:1;vector-effect:none;fill:#803300;fill-opacity:1;stroke:none;stroke-width:5;stroke-linecap:butt;stroke-linejoin:miter;stroke-miterlimit:4;stroke-dasharray:none;stroke-dashoffset:0;stroke-opacity:1"/> <path style="opacity:1;vector-effect:none;fill:#333333;fill-opacity:1;stroke:none;stroke-width:5;stroke-linecap:butt;stroke-linejoin:miter;stroke-miterlimit:4;stroke-dasharray:none;stroke-dashoffset:0;stroke-opacity:1" d="m 835,1455.3571 4.64286,66.0715 -51.42857,-20.7143 17.14285,-7.8572 z" id="path4932"/> <path style="opacity:1;vector-effect:none;fill:none;fill-opacity:1;stroke:#000000;stroke-width:5;stroke-linecap:butt;stroke-linejoin:miter;stroke-miterlimit:4;stroke-dasharray:none;stroke-dashoffset:0;stroke-opacity:1" d="m 838.91538,1521.9119 -324.6977,155.5881 -25.7483,-29.4994 10.867,-8.7854 305.7723,-146.5194 29.7426,-39.0536 18.363,22.4292 z" id="path4823"/> <path style="display:inline;opacity:1;vector-effect:none;fill:#666666;fill-opacity:1;stroke:none;stroke-width:5;stroke-linecap:butt;stroke-linejoin:miter;stroke-miterlimit:4;stroke-dasharray:none;stroke-dashoffset:0;stroke-opacity:1" d="m 1115.2084,1387.317 12.8795,11.6167 -0.5051,-185.1104 -1.7678,-102.5305 -8.3337,-89.6511 -9.849,-41.41625 -11.3642,-9.84898 -34.8503,-15.90991 -9.0914,17.67767 12.8795,100.00517 10.6066,7.1973 29.8339,15.3451 12.845,13.9493 0.1263,54.5483 0.8839,153.4169 -0.7577,68.4378 z" id="path4668"/> <path style="display:inline;opacity:1;vector-effect:none;fill:#4d4d4d;fill-opacity:1;stroke:none;stroke-width:5;stroke-linecap:butt;stroke-linejoin:miter;stroke-miterlimit:4;stroke-dasharray:none;stroke-dashoffset:0;stroke-opacity:1" d="m 1115.2084,1011.7928 51.2653,25.0012 v 48.2348 l -40.1536,30.0521 -6.8185,-73.9937 z" id="path4670"/> <path style="display:inline;opacity:1;vector-effect:none;fill:#803300;fill-opacity:1;stroke:none;stroke-width:5;stroke-linecap:butt;stroke-linejoin:miter;stroke-miterlimit:4;stroke-dasharray:none;stroke-dashoffset:0;stroke-opacity:1" d="m 1162.9381,1033.511 254.919,-205.6539 10.7143,16.78571 17.1429,15.35715 -271.0714,217.50004 -8.5715,40.3571 -27.5,-13.2142 28.5715,-21.0715 -1.0715,-45.7143 z" id="path4672"/> <path style="opacity:1;vector-effect:none;fill:#552200;fill-opacity:1;stroke:none;stroke-width:5;stroke-linecap:butt;stroke-linejoin:miter;stroke-miterlimit:4;stroke-dasharray:none;stroke-dashoffset:0;stroke-opacity:1" d="m 1165.1786,1034.1071 21.0714,-17.1428 -21.0714,99.4643 -25.3572,-12.3215 26.25,-19.6428 z" id="path4928"/> <path id="path4853" d="m 838.54521,1033.511 -254.919,-205.6539 -10.7143,16.78571 -17.1429,15.35715 271.0714,217.50004 8.5715,40.3571 27.5,-13.2142 -28.5715,-21.0715 1.0715,-45.7143 z" style="display:inline;opacity:1;vector-effect:none;fill:#803300;fill-opacity:1;stroke:none;stroke-width:5;stroke-linecap:butt;stroke-linejoin:miter;stroke-miterlimit:4;stroke-dasharray:none;stroke-dashoffset:0;stroke-opacity:1"/> <path style="display:inline;opacity:1;vector-effect:none;fill:#803300;fill-opacity:1;stroke:none;stroke-width:5;stroke-linecap:butt;stroke-linejoin:miter;stroke-miterlimit:4;stroke-dasharray:none;stroke-dashoffset:0;stroke-opacity:1" d="m 910.39998,1474.6952 c 0,0 -5.05076,-5.8084 -5.3033,-6.8186 -0.25254,-1.0101 -19.95051,-79.2969 -19.95051,-79.2969 l -4.29315,-5.0508 -1.26269,-204.0508 2.77792,-73.4886 10.6066,-14.6472 28.78935,-12.8795 12.62691,-7.5761 -13.13199,156.5736 -10.35406,233.5978 z" id="path4857"/> <path style="display:inline;opacity:1;vector-effect:none;fill:#666666;fill-opacity:1;stroke:none;stroke-width:5;stroke-linecap:butt;stroke-linejoin:miter;stroke-miterlimit:4;stroke-dasharray:none;stroke-dashoffset:0;stroke-opacity:1" d="m 871.25657,1398.1761 11.61676,-9.5964 -3.03046,-3.7881 v -148.9975 l 2.27284,-108.8439 1.01015,-20.7082 10.89964,-10.2297 17.63717,-13.5089 22.4759,-11.6167 13.38452,-99.75262 -9.84899,-16.66752 -39.64849,19.69798 -12.6269,24.24366 -8.83884,73.7412 -4.54568,102.0254 -1.26269,103.5406 z" id="path4859"/> <path style="display:inline;opacity:1;vector-effect:none;fill:#37abc8;fill-opacity:1;stroke:none;stroke-width:5;stroke-linecap:butt;stroke-linejoin:miter;stroke-miterlimit:4;stroke-dasharray:none;stroke-dashoffset:0;stroke-opacity:1" d="m 938.68425,955.98179 9.59645,15.90991 103.0356,-1.01016 9.849,-15.40482 z" id="path4861"/> <path style="display:inline;opacity:1;vector-effect:none;fill:#4d4d4d;fill-opacity:1;stroke:none;stroke-width:5;stroke-linecap:butt;stroke-linejoin:miter;stroke-miterlimit:4;stroke-dasharray:none;stroke-dashoffset:0;stroke-opacity:1" d="m 832.87077,1035.5313 50.00256,-22.9809 -9.09138,100.7627 -41.66879,-28.5368 z" id="path4863"/> <path style="opacity:1;vector-effect:none;fill:#ff6600;fill-opacity:1;stroke:none;stroke-width:5;stroke-linecap:butt;stroke-linejoin:miter;stroke-miterlimit:4;stroke-dasharray:none;stroke-dashoffset:0;stroke-opacity:1" d="m 909.13729,1745.416 91.67131,4.0407 88.8935,-3.7881 0.2979,-119.9543 0.9647,-93.9455 -6.5659,-190.9188 -9.0914,-146.9772 -12.1218,-138.896 -11.1117,-83.3376 -102.78304,-0.50508 -11.36422,65.40738 -12.37437,132.5825 -6.56599,104.2983 -4.79823,105.5609 -4.79822,107.3287 -0.50508,110.1066 z" id="path4656"/> <path style="opacity:1;vector-effect:none;fill:#803300;fill-opacity:1;stroke:none;stroke-width:5;stroke-linecap:butt;stroke-linejoin:miter;stroke-miterlimit:4;stroke-dasharray:none;stroke-dashoffset:0;stroke-opacity:1" d="m 1088.9444,1477.2205 4.2932,-6.0609 21.7183,-82.5799 4.5457,-4.7983 0.505,-177.7868 -2.5253,-98.4899 -12.3797,-13.2007 -25.0953,-16.6907 -16.0631,-7.2317 16.7711,188.547 5.7143,137.8571 z" id="path4666"/> <path style="opacity:1;vector-effect:none;fill:#803300;fill-opacity:1;stroke:none;stroke-width:5;stroke-linecap:butt;stroke-linejoin:miter;stroke-miterlimit:4;stroke-dasharray:none;stroke-dashoffset:0;stroke-opacity:1" d="m 1161.0846,1521.9119 324.6977,155.5881 25.7483,-29.4994 -10.867,-8.7854 -305.7723,-146.5194 -29.7426,-39.0536 -18.363,22.4292 z" id="path4447"/> <path style="opacity:1;vector-effect:none;fill:#333333;fill-opacity:1;stroke:none;stroke-width:5;stroke-linecap:butt;stroke-linejoin:miter;stroke-miterlimit:4;stroke-dasharray:none;stroke-dashoffset:0;stroke-opacity:1" d="m 1160.7143,1522.5 4.6428,-66.7857 30.3572,37.1428 15.3571,8.2143 z" id="path4934"/> <path id="path4654" d="m 1161.0846,1521.9119 324.6977,155.5881 25.7483,-29.4994 -10.867,-8.7854 -305.7723,-146.5194 -29.7426,-39.0536 -18.363,22.4292 z" style="opacity:1;vector-effect:none;fill:none;fill-opacity:1;stroke:#000000;stroke-width:5;stroke-linecap:butt;stroke-linejoin:miter;stroke-miterlimit:4;stroke-dasharray:none;stroke-dashoffset:0;stroke-opacity:1"/> <path style="opacity:1;vector-effect:none;fill:#d45500;fill-opacity:1;stroke:none;stroke-width:5;stroke-linecap:butt;stroke-linejoin:miter;stroke-miterlimit:4;stroke-dasharray:none;stroke-dashoffset:0;stroke-opacity:1" d="m 1089.6429,1743.5714 64.6428,-93.9285 11.4286,-217.1429 -49.2857,-45 -5.3572,16.0714 -18.5714,70.7143 -2.5,3.2143 z" id="path4664"/> <path id="path4938" d="m 1106.6509,1420.3571 35.3572,40.3572 -1.2776,180.656 -48.9924,86.3681 v 13.637 l 62.1244,-92.934 12.1218,-216.6777 -50.5076,-44.4467 z" style="opacity:1;vector-effect:none;fill:#aa4400;fill-opacity:1;stroke:none;stroke-width:5;stroke-linecap:butt;stroke-linejoin:miter;stroke-miterlimit:4;stroke-dasharray:none;stroke-dashoffset:0;stroke-opacity:1"/> <path style="opacity:1;vector-effect:none;fill:#4d4d4d;fill-opacity:1;stroke:none;stroke-width:5;stroke-linecap:butt;stroke-linejoin:miter;stroke-miterlimit:4;stroke-dasharray:none;stroke-dashoffset:0;stroke-opacity:1" d="m 1560.0629,1626.9944 -0.8868,-47.1216 c 0,0 -2.6872,-15.5486 10.0478,-33.5657 12.735,-18.0171 161.6364,-212.2822 161.6364,-212.2822 0,0 3.106,-4.6222 19.3995,4.7849 13.7783,7.9549 22.5264,13.0057 16.903,23.7561 -5.6236,10.7504 -118.716,224.8149 -118.716,224.8149 0,0 -9.2358,20.0374 -35.1541,37.1501 -25.9184,17.1127 -30.8677,28.5439 -30.8677,28.5439" id="path4488"/> <path id="path4490" d="m 1531.1866,1741.3188 0.8868,47.1216 c 0,0 2.6872,15.5486 -10.0478,33.5657 -12.735,18.0171 -161.6364,212.2822 -161.6364,212.2822 0,0 -3.106,4.6222 -19.3995,-4.7849 -13.7783,-7.9549 -22.5264,-13.0057 -16.903,-23.7561 5.6236,-10.7504 118.716,-224.8149 118.716,-224.8149 0,0 9.2358,-20.0374 35.1541,-37.1501 25.9184,-17.1127 30.8677,-28.5439 30.8677,-28.5439" style="opacity:1;vector-effect:none;fill:#333333;fill-opacity:1;stroke:none;stroke-width:5;stroke-linecap:butt;stroke-linejoin:miter;stroke-miterlimit:4;stroke-dasharray:none;stroke-dashoffset:0;stroke-opacity:1"/> <path style="opacity:1;vector-effect:none;fill:#333333;fill-opacity:1;stroke:none;stroke-width:5;stroke-linecap:butt;stroke-linejoin:miter;stroke-miterlimit:4;stroke-dasharray:none;stroke-dashoffset:0;stroke-opacity:1" d="m 1578.1227,1608.9894 c 0,0 -10.6227,-33.6323 29.0202,-90.7751 39.6428,-57.1429 135.7142,-183.5714 135.7142,-183.5714 l 21.7858,12.5 5,7.8571 -2.5,8.2143 -89.6429,168.5714 -33.2143,62.1429 -11.25,14.4643 -18.5714,15.1785 -20.3572,15.7143 -1.4285,-5.5357 c 0,0 5.3571,-19.2857 -2.5,-23.0357 -7.8572,-3.75 -12.0559,-1.7249 -12.0559,-1.7249 z" id="path4644"/> <circle transform="rotate(-60)" style="opacity:1;fill:#ff6600;fill-opacity:1;stroke:#000000;stroke-width:5;stroke-linecap:round;stroke-linejoin:round;stroke-miterlimit:4;stroke-dasharray:none;stroke-opacity:1" id="circle4534" cx="-682.06116" cy="2180.6287" r="62.726303"/> <path style="opacity:1;vector-effect:none;fill:#d45500;fill-opacity:1;stroke:none;stroke-width:5;stroke-linecap:butt;stroke-linejoin:miter;stroke-miterlimit:4;stroke-dasharray:none;stroke-dashoffset:0;stroke-opacity:1" d="m 947.52309,971.13408 -7.88023,51.72302 -5,46.0715 130.71424,0.7143 -12.1428,-98.92862 z" id="path4942"/> <path style="opacity:1;vector-effect:none;fill:#4d4d4d;fill-opacity:1;stroke:none;stroke-width:5;stroke-linecap:butt;stroke-linejoin:miter;stroke-miterlimit:4;stroke-dasharray:none;stroke-dashoffset:0;stroke-opacity:1" d="m 871.25,1399.2857 11.78572,-9.2857 -2.32143,-4.2857 -0.35715,-117.1429 0.89286,-124.2857 1.78572,-37.3214 25.71428,-21.7857 25.71429,-14.1072 4.82143,-46.7857 c 0,0 -43.57143,18.5714 -64.64286,73.2143 l -2.5,99.6429 -1.07143,137.1428 z" id="path4954"/> <path id="path4956" d="m 1129.5209,1399.2857 -11.7857,-9.2857 2.3214,-4.2857 0.3572,-117.1429 -0.8929,-124.2857 -1.7857,-37.3214 -25.7143,-21.7857 -25.7143,-14.1072 -4.8214,-46.7857 c 0,0 43.5714,18.5714 64.6428,73.2143 l 2.5,99.6429 1.0715,137.1428 z" style="opacity:1;vector-effect:none;fill:#4d4d4d;fill-opacity:1;stroke:none;stroke-width:5;stroke-linecap:butt;stroke-linejoin:miter;stroke-miterlimit:4;stroke-dasharray:none;stroke-dashoffset:0;stroke-opacity:1"/> <path style="opacity:1;vector-effect:none;fill:none;fill-opacity:1;stroke:#000000;stroke-width:5;stroke-linecap:butt;stroke-linejoin:miter;stroke-miterlimit:4;stroke-dasharray:none;stroke-dashoffset:0;stroke-opacity:1" d="m 1119.6429,1384.2857 v -145.7143 c 0,-81.4285 -3.0213,-132.0768 -3.0213,-132.0768 -11.8142,-13.5687 -30.7315,-26.4014 -51.806,-37.3757 H 1000 935.1844 c -21.0745,10.9743 -39.9918,23.807 -51.806,37.3757 0,0 -3.0213,50.6483 -3.0213,132.0768 v 145.7143" id="path4421"/> <path style="display:inline;opacity:1;vector-effect:none;fill:#d45500;fill-opacity:1;stroke:none;stroke-width:5;stroke-linecap:butt;stroke-linejoin:miter;stroke-miterlimit:4;stroke-dasharray:none;stroke-dashoffset:0;stroke-opacity:1" d="m 833.12331,1431.7637 51.01271,-42.9315 21.2132,80.5597 6.56599,10.6066 -3.34378,143.5729 -0.71429,118.2143 -62.14285,-92.5 L 839.64286,1522.5 836.29137,1477.8331 835,1453.9286 Z" id="path4855"/> <path style="opacity:1;vector-effect:none;fill:#aa4400;fill-opacity:1;stroke:none;stroke-width:5;stroke-linecap:butt;stroke-linejoin:miter;stroke-miterlimit:4;stroke-dasharray:none;stroke-dashoffset:0;stroke-opacity:1" d="m 893.21429,1420.3571 -35.35715,40.3572 1.2776,180.656 48.9924,86.3681 v 13.637 l -62.12438,-92.934 -12.12183,-216.6777 50.50762,-44.4467 z" id="path4936"/> <path id="path4429" d="m 1116.4286,1388.75 50,43.3929 -12.9364,217.3087 -62.6295,95.4594 c 0,0 -34.5338,4.0406 -90.8627,4.0406 -56.32893,0 -90.86271,-4.0406 -90.86271,-4.0406 l -62.62946,-95.4594 -12.9364,-217.3087 50,-43.3929" style="opacity:1;vector-effect:none;fill:none;fill-opacity:1;stroke:#000000;stroke-width:5;stroke-linecap:butt;stroke-linejoin:miter;stroke-miterlimit:4;stroke-dasharray:none;stroke-dashoffset:0;stroke-opacity:1"/> <path id="path4431" d="m 1128.2384,1382.2662 c -12.8795,0 -14.8998,12.6269 -14.8998,12.6269 0,0 -13.132,54.8008 -19.1929,73.9937 -6.0609,19.1929 -19.698,17.4251 -19.698,17.4251 H 1000 925.55227 c 0,0 -13.63706,1.7678 -19.69797,-17.4251 -6.06092,-19.1929 -19.1929,-73.9937 -19.1929,-73.9937 0,0 -2.02031,-12.6269 -14.89975,-12.6269" style="opacity:1;vector-effect:none;fill:none;fill-opacity:1;stroke:#000000;stroke-width:5;stroke-linecap:butt;stroke-linejoin:miter;stroke-miterlimit:4;stroke-dasharray:none;stroke-dashoffset:0;stroke-opacity:1"/> <path id="path4634" d="m 1061.5683,954.4666 -9.5871,16.60527 H 1000 948.01878 l -9.58706,-16.60527" style="opacity:1;vector-effect:none;fill:#aa4400;fill-opacity:1;stroke:#000000;stroke-width:5;stroke-linecap:butt;stroke-linejoin:miter;stroke-miterlimit:4;stroke-dasharray:none;stroke-dashoffset:0;stroke-opacity:1"/> <path style="opacity:1;vector-effect:none;fill:#333333;fill-opacity:1;stroke:none;stroke-width:5;stroke-linecap:butt;stroke-linejoin:miter;stroke-miterlimit:4;stroke-dasharray:none;stroke-dashoffset:0;stroke-opacity:1" d="m 1166.7857,1036.0714 -50.9052,-24.9014 7.2186,62.7535 2.7145,40.0493 5.0808,-3.6814 c 0,0 -0.7158,-43.8628 -4.2873,-79.0414 l 39.8666,10.7143 z" id="path4950"/> <path id="path4952" d="m 832.96384,1036.0714 50.9052,-24.9014 -7.2186,62.7535 -2.7145,40.0493 -5.0808,-3.6814 c 0,0 0.7158,-43.8628 4.2873,-79.0414 l -39.8666,10.7143 z" style="opacity:1;vector-effect:none;fill:#333333;fill-opacity:1;stroke:none;stroke-width:5;stroke-linecap:butt;stroke-linejoin:miter;stroke-miterlimit:4;stroke-dasharray:none;stroke-dashoffset:0;stroke-opacity:1"/> <path style="opacity:1;vector-effect:none;fill:none;fill-opacity:1;stroke:#000000;stroke-width:5;stroke-linecap:butt;stroke-linejoin:miter;stroke-miterlimit:4;stroke-dasharray:none;stroke-dashoffset:0;stroke-opacity:1" d="m 871.78572,1398.5714 c 0,0 -1.03423,-236.0134 3.00638,-295.6124 4.04061,-59.599 9.09138,-117.17767 22.72844,-127.78427 13.63706,-10.6066 40.91118,-20.70813 40.91118,-20.70813 H 1000 h 61.5683 c 0,0 27.2741,10.10153 40.9112,20.70813 13.637,10.6066 18.6878,68.18527 22.7284,127.78427 4.0406,59.599 3.0064,295.6124 3.0064,295.6124" id="path4433"/> <circle style="opacity:1;fill:#ffffff;fill-opacity:1;stroke:#000000;stroke-width:5;stroke-linecap:round;stroke-linejoin:round;stroke-miterlimit:4;stroke-dasharray:none;stroke-opacity:1" id="path4439" cx="919.46436" cy="990.89282" r="7.6389012"/> <circle r="7.6389012" cy="990.89282" cx="-1080.5356" id="circle4443" style="opacity:1;fill:#ffffff;fill-opacity:1;stroke:#000000;stroke-width:5;stroke-linecap:round;stroke-linejoin:round;stroke-miterlimit:4;stroke-dasharray:none;stroke-opacity:1" transform="scale(-1,1)"/> <circle style="opacity:1;fill:#ffffff;fill-opacity:1;stroke:#000000;stroke-width:5;stroke-linecap:round;stroke-linejoin:round;stroke-miterlimit:4;stroke-dasharray:none;stroke-opacity:1" id="path4445" cx="1000" cy="1364.6429" r="25.357143"/> <path style="opacity:1;vector-effect:none;fill:#4d4d4d;fill-opacity:1;stroke:none;stroke-width:5;stroke-linecap:butt;stroke-linejoin:miter;stroke-miterlimit:4;stroke-dasharray:none;stroke-dashoffset:0;stroke-opacity:1" d="m 1514.2857,1752.8571 c 0,0 10,36.0715 -17.1428,76.7858 -27.1429,40.7142 -148.5715,203.5714 -148.5715,203.5714 L 1360,2035 l 88.2143,-116.0714 77.1428,-102.1429 7.1429,-20 -1.7857,-55 -8.5714,9.6429 z" id="path4648"/> <rect rx="24.916557" ry="16.329002" y="2164.2996" x="-764.31555" height="32.658005" width="164.5088" id="rect4486" style="opacity:1;fill:#4d4d4d;fill-opacity:1;stroke:#000000;stroke-width:5;stroke-linecap:round;stroke-linejoin:round;stroke-miterlimit:4;stroke-dasharray:none;stroke-opacity:1" transform="rotate(-60)"/> <circle r="48.773811" cy="2180.6287" cx="-682.06116" id="circle4492" style="opacity:1;fill:#4d4d4d;fill-opacity:1;stroke:#000000;stroke-width:4.83309746;stroke-linecap:round;stroke-linejoin:round;stroke-miterlimit:4;stroke-dasharray:none;stroke-opacity:1" transform="rotate(-60)"/> <rect style="opacity:1;fill:#666666;fill-opacity:1;stroke:#000000;stroke-width:5;stroke-linecap:round;stroke-linejoin:round;stroke-miterlimit:4;stroke-dasharray:none;stroke-opacity:1" id="rect4484" width="106.14812" height="32.154457" x="-735.13513" y="2164.5513" ry="16.077229" rx="16.077229" transform="rotate(-60)"/> <circle style="opacity:1;fill:#e6e6e6;fill-opacity:1;stroke:#000000;stroke-width:5;stroke-linecap:round;stroke-linejoin:round;stroke-miterlimit:4;stroke-dasharray:none;stroke-opacity:1" id="path4457" cx="-682.06116" cy="2180.6287" r="6.5008554" transform="rotate(-60)"/> <circle r="6.5008554" cy="2180.6287" cx="-646.20068" id="circle4478" style="opacity:1;fill:#e6e6e6;fill-opacity:1;stroke:#000000;stroke-width:5;stroke-linecap:round;stroke-linejoin:round;stroke-miterlimit:4;stroke-dasharray:none;stroke-opacity:1" transform="rotate(-60)"/> <circle style="opacity:1;fill:#e6e6e6;fill-opacity:1;stroke:#000000;stroke-width:5;stroke-linecap:round;stroke-linejoin:round;stroke-miterlimit:4;stroke-dasharray:none;stroke-opacity:1" id="circle4482" cx="717.92163" cy="2180.6287" r="6.5008554" transform="matrix(-0.5,0.8660254,0.8660254,0.5,0,0)"/> <path style="opacity:1;vector-effect:none;fill:none;fill-opacity:1;stroke:#000000;stroke-width:5;stroke-linecap:butt;stroke-linejoin:miter;stroke-miterlimit:4;stroke-dasharray:none;stroke-dashoffset:0;stroke-opacity:1" d="m 1212.7663,1501.2611 -51.6817,20.6508" id="path4544"/> <path style="opacity:1;vector-effect:none;fill:none;fill-opacity:1;stroke:#000000;stroke-width:5;stroke-linecap:butt;stroke-linejoin:miter;stroke-miterlimit:4;stroke-dasharray:none;stroke-dashoffset:0;stroke-opacity:1" d="m 1115.8805,1011.17 50.9052,24.9014 v 48.2143 l -40.9721,29.6871" id="path4576"/> <path id="path4578" d="m 1174.7873,1077.8149 271.959,-219.93235" style="opacity:1;vector-effect:none;fill:none;fill-opacity:1;stroke:#000000;stroke-width:5;stroke-linecap:butt;stroke-linejoin:miter;stroke-miterlimit:4;stroke-dasharray:none;stroke-dashoffset:0;stroke-opacity:1"/> <path style="opacity:1;vector-effect:none;fill:none;fill-opacity:1;stroke:#000000;stroke-width:5;stroke-linecap:butt;stroke-linejoin:miter;stroke-miterlimit:4;stroke-dasharray:none;stroke-dashoffset:0;stroke-opacity:1" d="M 1162.9703,1034.6983 1418.5636,828.00084" id="path4598"/> <path id="path4604" d="m 1187.9678,1014.483 -21.8006,102.3946 -26.9491,-12.6173" style="opacity:1;vector-effect:none;fill:none;fill-opacity:1;stroke:#000000;stroke-width:5;stroke-linecap:butt;stroke-linejoin:miter;stroke-miterlimit:4;stroke-dasharray:none;stroke-dashoffset:0;stroke-opacity:1"/> <path style="opacity:1;vector-effect:none;fill:none;fill-opacity:1;stroke:#000000;stroke-width:5;stroke-linecap:butt;stroke-linejoin:miter;stroke-miterlimit:4;stroke-dasharray:none;stroke-dashoffset:0;stroke-opacity:1" d="m 948.01878,971.07187 c 0,0 -12.30449,41.78523 -28.01878,293.21383 -15.71428,251.4286 -10.86271,480.6253 -10.86271,480.6253" id="path4636"/> <path id="path4638" d="m 1051.9812,971.07187 c 0,0 12.3045,41.78523 28.0188,293.21383 15.7143,251.4286 10.8627,480.6253 10.8627,480.6253" style="opacity:1;vector-effect:none;fill:none;fill-opacity:1;stroke:#000000;stroke-width:5;stroke-linecap:butt;stroke-linejoin:miter;stroke-miterlimit:4;stroke-dasharray:none;stroke-dashoffset:0;stroke-opacity:1"/> <path id="path4646" d="m 1560.0629,1626.9944 -0.8868,-47.1216 c 0,0 -0.7229,-18.4057 12.0121,-36.4228 12.735,-18.0171 159.6721,-209.4251 159.6721,-209.4251 0,0 3.106,-4.6222 19.3995,4.7849 13.7783,7.9549 22.5264,13.0057 16.903,23.7561 -5.6236,10.7504 -118.716,224.8149 -118.716,224.8149 0,0 -9.2358,20.0374 -35.1541,37.1501 -25.9184,17.1127 -30.8677,28.5439 -30.8677,28.5439" style="opacity:1;vector-effect:none;fill:none;fill-opacity:1;stroke:#000000;stroke-width:5;stroke-linecap:butt;stroke-linejoin:miter;stroke-miterlimit:4;stroke-dasharray:none;stroke-dashoffset:0;stroke-opacity:1"/> <path style="opacity:1;vector-effect:none;fill:none;fill-opacity:1;stroke:#000000;stroke-width:5;stroke-linecap:butt;stroke-linejoin:miter;stroke-miterlimit:4;stroke-dasharray:none;stroke-dashoffset:0;stroke-opacity:1" d="m 1531.1866,1741.3188 0.8868,47.1216 c 0,0 1.0457,17.4426 -11.6893,35.4597 -12.735,18.0171 -159.9949,210.3882 -159.9949,210.3882 0,0 -3.106,4.6222 -19.3995,-4.7849 -13.7783,-7.9549 -22.5264,-13.0057 -16.903,-23.7561 5.6236,-10.7504 118.716,-224.8149 118.716,-224.8149 0,0 9.2358,-20.0374 35.1541,-37.1501 25.9184,-17.1127 30.8677,-28.5439 30.8677,-28.5439" id="path4650"/> <path id="path4662" d="m 1148.7935,1656.7752 v 43.9416 h -29.0419 z" style="opacity:1;vector-effect:none;fill:#000000;fill-opacity:1;stroke:none;stroke-width:5;stroke-linecap:butt;stroke-linejoin:miter;stroke-miterlimit:4;stroke-dasharray:none;stroke-dashoffset:0;stroke-opacity:1"/> <path id="path4674" d="m 1484.7444,858.87174 -0.8868,47.1216 c 0,0 -2.6872,15.5486 10.0478,33.5657 12.735,18.0171 161.6364,212.28226 161.6364,212.28226 0,0 3.106,4.6222 19.3995,-4.7849 13.7783,-7.9549 22.5264,-13.0057 16.903,-23.7561 -5.6236,-10.7504 -118.716,-224.81496 -118.716,-224.81496 0,0 -9.2358,-20.0374 -35.1541,-37.1501 -25.9184,-17.1127 -30.8677,-28.5439 -30.8677,-28.5439" style="opacity:1;vector-effect:none;fill:#4d4d4d;fill-opacity:1;stroke:none;stroke-width:5;stroke-linecap:butt;stroke-linejoin:miter;stroke-miterlimit:4;stroke-dasharray:none;stroke-dashoffset:0;stroke-opacity:1"/> <path style="opacity:1;vector-effect:none;fill:#333333;fill-opacity:1;stroke:none;stroke-width:5;stroke-linecap:butt;stroke-linejoin:miter;stroke-miterlimit:4;stroke-dasharray:none;stroke-dashoffset:0;stroke-opacity:1" d="m 1455.8681,744.54734 0.8868,-47.1216 c 0,0 2.6872,-15.5486 -10.0478,-33.5657 -12.735,-18.0171 -161.6364,-212.2822 -161.6364,-212.2822 0,0 -3.106,-4.6222 -19.3995,4.7849 -13.7783,7.9549 -22.5264,13.0057 -16.903,23.7561 5.6236,10.7504 118.716,224.8149 118.716,224.8149 0,0 9.2358,20.0374 35.1541,37.1501 25.9184,17.1127 30.8677,28.5439 30.8677,28.5439" id="path4676"/> <path id="path4678" d="m 1502.8042,876.87674 c 0,0 -10.6227,33.6323 29.0202,90.7751 39.6428,57.14296 135.7142,183.57146 135.7142,183.57146 l 21.7858,-12.5 5,-7.8571 -2.5,-8.2143 -89.6429,-168.57146 -33.2143,-62.1429 -11.25,-14.4643 -18.5714,-15.1785 -20.3572,-15.7143 -1.4285,5.5357 c 0,0 5.3571,19.2857 -2.5,23.0357 -7.8572,3.75 -12.0559,1.7249 -12.0559,1.7249 z" style="opacity:1;vector-effect:none;fill:#333333;fill-opacity:1;stroke:none;stroke-width:5;stroke-linecap:butt;stroke-linejoin:miter;stroke-miterlimit:4;stroke-dasharray:none;stroke-dashoffset:0;stroke-opacity:1"/> <circle r="62.726303" cy="872.4679" cx="1433.1029" id="circle4680" style="opacity:1;fill:#ff6600;fill-opacity:1;stroke:#000000;stroke-width:5;stroke-linecap:round;stroke-linejoin:round;stroke-miterlimit:4;stroke-dasharray:none;stroke-opacity:1" transform="matrix(0.5,0.8660254,0.8660254,-0.5,0,0)"/> <path id="path4682" d="m 1438.9672,733.00904 c 0,0 10,-36.0715 -17.1428,-76.7858 -27.1429,-40.7142 -148.5715,-203.5714 -148.5715,-203.5714 l 11.4286,-1.7857 88.2143,116.0714 77.1428,102.1429 7.1429,20 -1.7857,55 -8.5714,-9.6429 z" style="opacity:1;vector-effect:none;fill:#4d4d4d;fill-opacity:1;stroke:none;stroke-width:5;stroke-linecap:butt;stroke-linejoin:miter;stroke-miterlimit:4;stroke-dasharray:none;stroke-dashoffset:0;stroke-opacity:1"/> <rect transform="matrix(0.5,0.8660254,0.8660254,-0.5,0,0)" style="opacity:1;fill:#4d4d4d;fill-opacity:1;stroke:#000000;stroke-width:5;stroke-linecap:round;stroke-linejoin:round;stroke-miterlimit:4;stroke-dasharray:none;stroke-opacity:1" id="rect4684" width="164.5088" height="32.658005" x="1350.8485" y="856.13879" ry="16.329002" rx="24.916557"/> <circle transform="matrix(0.5,0.8660254,0.8660254,-0.5,0,0)" style="opacity:1;fill:#4d4d4d;fill-opacity:1;stroke:#000000;stroke-width:4.83309746;stroke-linecap:round;stroke-linejoin:round;stroke-miterlimit:4;stroke-dasharray:none;stroke-opacity:1" id="circle4686" cx="1433.1029" cy="872.4679" r="48.773811"/> <rect transform="matrix(0.5,0.8660254,0.8660254,-0.5,0,0)" rx="16.077229" ry="16.077229" y="856.3905" x="1380.0289" height="32.154457" width="106.14812" id="rect4688" style="opacity:1;fill:#666666;fill-opacity:1;stroke:#000000;stroke-width:5;stroke-linecap:round;stroke-linejoin:round;stroke-miterlimit:4;stroke-dasharray:none;stroke-opacity:1"/> <circle transform="matrix(0.5,0.8660254,0.8660254,-0.5,0,0)" r="6.5008554" cy="872.4679" cx="1433.1029" id="circle4690" style="opacity:1;fill:#e6e6e6;fill-opacity:1;stroke:#000000;stroke-width:5;stroke-linecap:round;stroke-linejoin:round;stroke-miterlimit:4;stroke-dasharray:none;stroke-opacity:1"/> <circle transform="matrix(0.5,0.8660254,0.8660254,-0.5,0,0)" style="opacity:1;fill:#e6e6e6;fill-opacity:1;stroke:#000000;stroke-width:5;stroke-linecap:round;stroke-linejoin:round;stroke-miterlimit:4;stroke-dasharray:none;stroke-opacity:1" id="circle4692" cx="1468.9634" cy="872.4679" r="6.5008554"/> <circle transform="rotate(-120)" r="6.5008554" cy="872.4679" cx="-1397.2424" id="circle4694" style="opacity:1;fill:#e6e6e6;fill-opacity:1;stroke:#000000;stroke-width:5;stroke-linecap:round;stroke-linejoin:round;stroke-miterlimit:4;stroke-dasharray:none;stroke-opacity:1"/> <path style="opacity:1;vector-effect:none;fill:none;fill-opacity:1;stroke:#000000;stroke-width:5;stroke-linecap:butt;stroke-linejoin:miter;stroke-miterlimit:4;stroke-dasharray:none;stroke-dashoffset:0;stroke-opacity:1" d="m 1484.7444,858.87174 -0.8868,47.1216 c 0,0 -0.7229,18.4057 12.0121,36.4228 12.735,18.0171 159.6721,209.42516 159.6721,209.42516 0,0 3.106,4.6222 19.3995,-4.7849 13.7783,-7.9549 22.5264,-13.0057 16.903,-23.7561 -5.6236,-10.7504 -118.716,-224.81496 -118.716,-224.81496 0,0 -9.2358,-20.0374 -35.1541,-37.1501 -25.9184,-17.1127 -30.8677,-28.5439 -30.8677,-28.5439" id="path4696"/> <path id="path4698" d="m 1455.8681,744.54734 0.8868,-47.1216 c 0,0 1.0457,-17.4426 -11.6893,-35.4597 -12.735,-18.0171 -159.9949,-210.3882 -159.9949,-210.3882 0,0 -3.106,-4.6222 -19.3995,4.7849 -13.7783,7.9549 -22.5264,13.0057 -16.903,23.7561 5.6236,10.7504 118.716,224.8149 118.716,224.8149 0,0 9.2358,20.0374 35.1541,37.1501 25.9184,17.1127 30.8677,28.5439 30.8677,28.5439" style="opacity:1;vector-effect:none;fill:none;fill-opacity:1;stroke:#000000;stroke-width:5;stroke-linecap:butt;stroke-linejoin:miter;stroke-miterlimit:4;stroke-dasharray:none;stroke-dashoffset:0;stroke-opacity:1"/> <path style="opacity:1;vector-effect:none;fill:#552200;fill-opacity:1;stroke:none;stroke-width:5;stroke-linecap:butt;stroke-linejoin:miter;stroke-miterlimit:4;stroke-dasharray:none;stroke-dashoffset:0;stroke-opacity:1" d="m 811.91011,1014.3181 22.47589,101.7729 25.75889,-11.8693 -27.52665,-21.4657 0.25253,-46.467 2.52539,-2.2729 z" id="path4930"/> <path id="path4785" d="m 884.11949,1011.17 -50.9052,24.9014 v 48.2143 l 40.9721,29.6871" style="opacity:1;vector-effect:none;fill:none;fill-opacity:1;stroke:#000000;stroke-width:5;stroke-linecap:butt;stroke-linejoin:miter;stroke-miterlimit:4;stroke-dasharray:none;stroke-dashoffset:0;stroke-opacity:1"/> <path style="opacity:1;vector-effect:none;fill:none;fill-opacity:1;stroke:#000000;stroke-width:5;stroke-linecap:butt;stroke-linejoin:miter;stroke-miterlimit:4;stroke-dasharray:none;stroke-dashoffset:0;stroke-opacity:1" d="M 825.21269,1077.8149 553.25369,857.88255" id="path4787"/> <path id="path4789" d="M 837.02969,1034.6983 581.43639,828.00084" style="opacity:1;vector-effect:none;fill:none;fill-opacity:1;stroke:#000000;stroke-width:5;stroke-linecap:butt;stroke-linejoin:miter;stroke-miterlimit:4;stroke-dasharray:none;stroke-dashoffset:0;stroke-opacity:1"/> <path style="opacity:1;vector-effect:none;fill:none;fill-opacity:1;stroke:#000000;stroke-width:5;stroke-linecap:butt;stroke-linejoin:miter;stroke-miterlimit:4;stroke-dasharray:none;stroke-dashoffset:0;stroke-opacity:1" d="m 812.03219,1014.483 21.8006,102.3946 26.9491,-12.6173" id="path4791"/> <path style="opacity:1;vector-effect:none;fill:#4d4d4d;fill-opacity:1;stroke:none;stroke-width:5;stroke-linecap:butt;stroke-linejoin:miter;stroke-miterlimit:4;stroke-dasharray:none;stroke-dashoffset:0;stroke-opacity:1" d="m 515.2555,858.8717 0.8868,47.1216 c 0,0 2.6872,15.5486 -10.0478,33.5657 -12.735,18.0171 -161.6364,212.2822 -161.6364,212.2822 0,0 -3.106,4.6222 -19.3995,-4.7849 -13.7783,-7.9549 -22.5264,-13.0057 -16.903,-23.7561 5.6236,-10.7504 118.716,-224.8149 118.716,-224.8149 0,0 9.2358,-20.0374 35.1541,-37.1501 25.9184,-17.1127 30.8677,-28.5439 30.8677,-28.5439" id="path4793"/> <path id="path4795" d="m 544.1318,744.5473 -0.8868,-47.1216 c 0,0 -2.6872,-15.5486 10.0478,-33.5657 12.735,-18.0171 161.6364,-212.2822 161.6364,-212.2822 0,0 3.106,-4.6222 19.3995,4.7849 13.7783,7.9549 22.5264,13.0057 16.903,23.7561 -5.6236,10.7504 -118.716,224.8149 -118.716,224.8149 0,0 -9.2358,20.0374 -35.1541,37.1501 -25.9184,17.1127 -30.8677,28.5439 -30.8677,28.5439" style="opacity:1;vector-effect:none;fill:#333333;fill-opacity:1;stroke:none;stroke-width:5;stroke-linecap:butt;stroke-linejoin:miter;stroke-miterlimit:4;stroke-dasharray:none;stroke-dashoffset:0;stroke-opacity:1"/> <path style="opacity:1;vector-effect:none;fill:#333333;fill-opacity:1;stroke:none;stroke-width:5;stroke-linecap:butt;stroke-linejoin:miter;stroke-miterlimit:4;stroke-dasharray:none;stroke-dashoffset:0;stroke-opacity:1" d="m 497.1957,876.8767 c 0,0 10.6227,33.6323 -29.0202,90.7751 -39.6428,57.1429 -135.7142,183.5714 -135.7142,183.5714 l -21.7858,-12.5 -5,-7.8571 2.5,-8.2143 89.6429,-168.5714 33.2143,-62.1429 11.25,-14.4643 18.5714,-15.1785 20.3572,-15.7143 1.4285,5.5357 c 0,0 -5.3571,19.2857 2.5,23.0357 7.8572,3.75 12.0559,1.7249 12.0559,1.7249 z" id="path4797"/> <circle transform="rotate(120)" style="opacity:1;fill:#ff6600;fill-opacity:1;stroke:#000000;stroke-width:5;stroke-linecap:round;stroke-linejoin:round;stroke-miterlimit:4;stroke-dasharray:none;stroke-opacity:1" id="circle4799" cx="433.10291" cy="-859.58282" r="62.726303"/> <path style="opacity:1;vector-effect:none;fill:#4d4d4d;fill-opacity:1;stroke:none;stroke-width:5;stroke-linecap:butt;stroke-linejoin:miter;stroke-miterlimit:4;stroke-dasharray:none;stroke-dashoffset:0;stroke-opacity:1" d="m 561.0327,733.009 c 0,0 -10,-36.0715 17.1428,-76.7858 C 605.3184,615.509 726.747,452.6518 726.747,452.6518 l -11.4286,-1.7857 -88.2143,116.0714 -77.1428,102.1429 -7.1429,20 1.7857,55 8.5714,-9.6429 z" id="path4801"/> <rect rx="24.916557" ry="16.329002" y="-875.91193" x="350.84851" height="32.658005" width="164.5088" id="rect4803" style="opacity:1;fill:#4d4d4d;fill-opacity:1;stroke:#000000;stroke-width:5;stroke-linecap:round;stroke-linejoin:round;stroke-miterlimit:4;stroke-dasharray:none;stroke-opacity:1" transform="rotate(120)"/> <circle r="48.773811" cy="-859.58282" cx="433.10291" id="circle4805" style="opacity:1;fill:#4d4d4d;fill-opacity:1;stroke:#000000;stroke-width:4.83309746;stroke-linecap:round;stroke-linejoin:round;stroke-miterlimit:4;stroke-dasharray:none;stroke-opacity:1" transform="rotate(120)"/> <rect style="opacity:1;fill:#666666;fill-opacity:1;stroke:#000000;stroke-width:5;stroke-linecap:round;stroke-linejoin:round;stroke-miterlimit:4;stroke-dasharray:none;stroke-opacity:1" id="rect4807" width="106.14812" height="32.154457" x="380.02893" y="-875.66022" ry="16.077229" rx="16.077229" transform="rotate(120)"/> <circle style="opacity:1;fill:#e6e6e6;fill-opacity:1;stroke:#000000;stroke-width:5;stroke-linecap:round;stroke-linejoin:round;stroke-miterlimit:4;stroke-dasharray:none;stroke-opacity:1" id="circle4809" cx="433.10291" cy="-859.58282" r="6.5008554" transform="rotate(120)"/> <circle r="6.5008554" cy="-859.58282" cx="468.96338" id="circle4811" style="opacity:1;fill:#e6e6e6;fill-opacity:1;stroke:#000000;stroke-width:5;stroke-linecap:round;stroke-linejoin:round;stroke-miterlimit:4;stroke-dasharray:none;stroke-opacity:1" transform="rotate(120)"/> <circle style="opacity:1;fill:#e6e6e6;fill-opacity:1;stroke:#000000;stroke-width:5;stroke-linecap:round;stroke-linejoin:round;stroke-miterlimit:4;stroke-dasharray:none;stroke-opacity:1" id="circle4813" cx="-397.24246" cy="-859.58282" r="6.5008554" transform="matrix(0.5,-0.8660254,-0.8660254,-0.5,0,0)"/> <path id="path4815" d="m 515.2555,858.8717 0.8868,47.1216 c 0,0 0.7229,18.4057 -12.0121,36.4228 -12.735,18.0171 -159.6721,209.4251 -159.6721,209.4251 0,0 -3.106,4.6222 -19.3995,-4.7849 -13.7783,-7.9549 -22.5264,-13.0057 -16.903,-23.7561 5.6236,-10.7504 118.716,-224.8149 118.716,-224.8149 0,0 9.2358,-20.0374 35.1541,-37.1501 25.9184,-17.1127 30.8677,-28.5439 30.8677,-28.5439" style="opacity:1;vector-effect:none;fill:none;fill-opacity:1;stroke:#000000;stroke-width:5;stroke-linecap:butt;stroke-linejoin:miter;stroke-miterlimit:4;stroke-dasharray:none;stroke-dashoffset:0;stroke-opacity:1"/> <path style="opacity:1;vector-effect:none;fill:none;fill-opacity:1;stroke:#000000;stroke-width:5;stroke-linecap:butt;stroke-linejoin:miter;stroke-miterlimit:4;stroke-dasharray:none;stroke-dashoffset:0;stroke-opacity:1" d="m 544.1318,744.5473 -0.8868,-47.1216 c 0,0 -1.0457,-17.4426 11.6893,-35.4597 12.735,-18.0171 159.9949,-210.3882 159.9949,-210.3882 0,0 3.106,-4.6222 19.3995,4.7849 13.7783,7.9549 22.5264,13.0057 16.903,23.7561 -5.6236,10.7504 -118.716,224.8149 -118.716,224.8149 0,0 -9.2358,20.0374 -35.1541,37.1501 -25.9184,17.1127 -30.8677,28.5439 -30.8677,28.5439" id="path4817"/> <path id="path4825" d="m 439.93708,1626.9944 0.8868,-47.1216 c 0,0 2.6872,-15.5486 -10.0478,-33.5657 -12.735,-18.0171 -161.6364,-212.2822 -161.6364,-212.2822 0,0 -3.106,-4.6222 -19.3995,4.7849 -13.7783,7.9549 -22.5264,13.0057 -16.903,23.7561 5.6236,10.7504 118.716,224.8149 118.716,224.8149 0,0 9.2358,20.0374 35.1541,37.1501 25.9184,17.1127 30.8677,28.5439 30.8677,28.5439" style="opacity:1;vector-effect:none;fill:#4d4d4d;fill-opacity:1;stroke:none;stroke-width:5;stroke-linecap:butt;stroke-linejoin:miter;stroke-miterlimit:4;stroke-dasharray:none;stroke-dashoffset:0;stroke-opacity:1"/> <path style="opacity:1;vector-effect:none;fill:#333333;fill-opacity:1;stroke:none;stroke-width:5;stroke-linecap:butt;stroke-linejoin:miter;stroke-miterlimit:4;stroke-dasharray:none;stroke-dashoffset:0;stroke-opacity:1" d="m 468.81338,1741.3188 -0.8868,47.1216 c 0,0 -2.6872,15.5486 10.0478,33.5657 12.735,18.0171 161.6364,212.2822 161.6364,212.2822 0,0 3.106,4.6222 19.3995,-4.7849 13.7783,-7.9549 22.5264,-13.0057 16.903,-23.7561 -5.6236,-10.7504 -118.716,-224.8149 -118.716,-224.8149 0,0 -9.2358,-20.0374 -35.1541,-37.1501 -25.9184,-17.1127 -30.8677,-28.5439 -30.8677,-28.5439" id="path4827"/> <path id="path4829" d="m 421.87728,1608.9894 c 0,0 10.6227,-33.6323 -29.0202,-90.7751 -39.6428,-57.1429 -135.7142,-183.5714 -135.7142,-183.5714 l -21.7858,12.5 -5,7.8571 2.5,8.2143 89.6429,168.5714 33.2143,62.1429 11.25,14.4643 18.5714,15.1785 20.3572,15.7143 1.4285,-5.5357 c 0,0 -5.3571,-19.2857 2.5,-23.0357 7.8572,-3.75 12.0559,-1.7249 12.0559,-1.7249 z" style="opacity:1;vector-effect:none;fill:#333333;fill-opacity:1;stroke:none;stroke-width:5;stroke-linecap:butt;stroke-linejoin:miter;stroke-miterlimit:4;stroke-dasharray:none;stroke-dashoffset:0;stroke-opacity:1"/> <circle r="62.726303" cy="448.57788" cx="-1682.0613" id="circle4831" style="opacity:1;fill:#ff6600;fill-opacity:1;stroke:#000000;stroke-width:5;stroke-linecap:round;stroke-linejoin:round;stroke-miterlimit:4;stroke-dasharray:none;stroke-opacity:1" transform="matrix(-0.5,-0.8660254,-0.8660254,0.5,0,0)"/> <path id="path4833" d="m 485.71428,1752.8571 c 0,0 -10,36.0715 17.1428,76.7858 27.1429,40.7142 148.5715,203.5714 148.5715,203.5714 l -11.4286,1.7857 -88.2143,-116.0714 -77.1428,-102.1429 -7.1429,-20 1.7857,-55 8.5714,9.6429 z" style="opacity:1;vector-effect:none;fill:#4d4d4d;fill-opacity:1;stroke:none;stroke-width:5;stroke-linecap:butt;stroke-linejoin:miter;stroke-miterlimit:4;stroke-dasharray:none;stroke-dashoffset:0;stroke-opacity:1"/> <rect transform="matrix(-0.5,-0.8660254,-0.8660254,0.5,0,0)" style="opacity:1;fill:#4d4d4d;fill-opacity:1;stroke:#000000;stroke-width:5;stroke-linecap:round;stroke-linejoin:round;stroke-miterlimit:4;stroke-dasharray:none;stroke-opacity:1" id="rect4835" width="164.5088" height="32.658005" x="-1764.3157" y="432.24878" ry="16.329002" rx="24.916557"/> <circle transform="matrix(-0.5,-0.8660254,-0.8660254,0.5,0,0)" style="opacity:1;fill:#4d4d4d;fill-opacity:1;stroke:#000000;stroke-width:4.83309746;stroke-linecap:round;stroke-linejoin:round;stroke-miterlimit:4;stroke-dasharray:none;stroke-opacity:1" id="circle4837" cx="-1682.0613" cy="448.57788" r="48.773811"/> <rect transform="matrix(-0.5,-0.8660254,-0.8660254,0.5,0,0)" rx="16.077229" ry="16.077229" y="432.50049" x="-1735.1353" height="32.154457" width="106.14812" id="rect4839" style="opacity:1;fill:#666666;fill-opacity:1;stroke:#000000;stroke-width:5;stroke-linecap:round;stroke-linejoin:round;stroke-miterlimit:4;stroke-dasharray:none;stroke-opacity:1"/> <circle transform="matrix(-0.5,-0.8660254,-0.8660254,0.5,0,0)" r="6.5008554" cy="448.57788" cx="-1682.0613" id="circle4841" style="opacity:1;fill:#e6e6e6;fill-opacity:1;stroke:#000000;stroke-width:5;stroke-linecap:round;stroke-linejoin:round;stroke-miterlimit:4;stroke-dasharray:none;stroke-opacity:1"/> <circle transform="matrix(-0.5,-0.8660254,-0.8660254,0.5,0,0)" style="opacity:1;fill:#e6e6e6;fill-opacity:1;stroke:#000000;stroke-width:5;stroke-linecap:round;stroke-linejoin:round;stroke-miterlimit:4;stroke-dasharray:none;stroke-opacity:1" id="circle4843" cx="-1646.2007" cy="448.57788" r="6.5008554"/> <circle transform="rotate(60)" r="6.5008554" cy="448.57788" cx="1717.9216" id="circle4845" style="opacity:1;fill:#e6e6e6;fill-opacity:1;stroke:#000000;stroke-width:5;stroke-linecap:round;stroke-linejoin:round;stroke-miterlimit:4;stroke-dasharray:none;stroke-opacity:1"/> <path id="path4847" d="m 787.23368,1501.2611 51.6817,20.6508" style="opacity:1;vector-effect:none;fill:none;fill-opacity:1;stroke:#000000;stroke-width:5;stroke-linecap:butt;stroke-linejoin:miter;stroke-miterlimit:4;stroke-dasharray:none;stroke-dashoffset:0;stroke-opacity:1"/> <path style="opacity:1;vector-effect:none;fill:none;fill-opacity:1;stroke:#000000;stroke-width:5;stroke-linecap:butt;stroke-linejoin:miter;stroke-miterlimit:4;stroke-dasharray:none;stroke-dashoffset:0;stroke-opacity:1" d="m 439.93708,1626.9944 0.8868,-47.1216 c 0,0 0.7229,-18.4057 -12.0121,-36.4228 -12.735,-18.0171 -159.6721,-209.4251 -159.6721,-209.4251 0,0 -3.106,-4.6222 -19.3995,4.7849 -13.7783,7.9549 -22.5264,13.0057 -16.903,23.7561 5.6236,10.7504 118.716,224.8149 118.716,224.8149 0,0 9.2358,20.0374 35.1541,37.1501 25.9184,17.1127 30.8677,28.5439 30.8677,28.5439" id="path4849"/> <path id="path4851" d="m 468.81338,1741.3188 -0.8868,47.1216 c 0,0 -1.0457,17.4426 11.6893,35.4597 12.735,18.0171 159.9949,210.3882 159.9949,210.3882 0,0 3.106,4.6222 19.3995,-4.7849 13.7783,-7.9549 22.5264,-13.0057 16.903,-23.7561 -5.6236,-10.7504 -118.716,-224.8149 -118.716,-224.8149 0,0 -9.2358,-20.0374 -35.1541,-37.1501 -25.9184,-17.1127 -30.8677,-28.5439 -30.8677,-28.5439" style="opacity:1;vector-effect:none;fill:none;fill-opacity:1;stroke:#000000;stroke-width:5;stroke-linecap:butt;stroke-linejoin:miter;stroke-miterlimit:4;stroke-dasharray:none;stroke-dashoffset:0;stroke-opacity:1"/> <path style="opacity:1;vector-effect:none;fill:#000000;fill-opacity:1;stroke:none;stroke-width:5;stroke-linecap:butt;stroke-linejoin:miter;stroke-miterlimit:4;stroke-dasharray:none;stroke-dashoffset:0;stroke-opacity:1" d="m 851.20649,1656.7752 v 43.9416 h 29.0419 z" id="path4865"/> <path style="opacity:1;vector-effect:none;fill:#de8787;fill-opacity:1;stroke:#000000;stroke-width:5;stroke-linecap:round;stroke-linejoin:miter;stroke-miterlimit:4;stroke-dasharray:none;stroke-dashoffset:0;stroke-opacity:1" d="M 942.14287,1497.8571 H 1057.8571" id="path4984"/> </g> </svg>